<svg width="888" height="742" fill="none" xmlns="http://www.w3.org/2000/svg"><g clip-path="url(#clip0)"><path d="M365.896 174.38h-4.032V63.927a63.92 63.92 0 00-18.724-45.203A63.923 63.923 0 00297.937 0H63.927A63.927 63.927 0 000 63.927v605.954a63.927 63.927 0 0063.927 63.927h234.01a63.921 63.921 0 0059.061-39.463 63.921 63.921 0 004.866-24.464V253.003h4.032V174.38z" fill="#E6E6E6"/><path d="M300.516 16.632H269.97a22.685 22.685 0 01-2.176 21.217 22.689 22.689 0 01-18.823 10.03H114.91a22.685 22.685 0 01-18.824-10.03 22.68 22.68 0 01-2.176-21.217H65.38a47.74 47.74 0 00-47.74 47.74v605.064a47.74 47.74 0 0047.74 47.741h235.136a47.744 47.744 0 0044.106-29.471c2.4-5.792 3.634-12 3.634-18.27V64.372a47.736 47.736 0 00-47.74-47.74z" fill="#3F3D56"/><path d="M113.672 139.635H99.633a1.861 1.861 0 00-1.861 1.861v6.162a1.86 1.86 0 001.861 1.862h2.327v9.233h9.386v-9.233h2.326a1.861 1.861 0 001.862-1.862v-6.162a1.86 1.86 0 00-1.862-1.861z" fill="#0984E3"/><path d="M127.734 196.032a72.188 72.188 0 01-12.557-42.794 1.524 1.524 0 00-1.188-1.519v-2.663H99.162v2.626h-.204a1.522 1.522 0 00-1.516 1.634c1.169 16.283-2.776 30.886-11.833 43.808a4.192 4.192 0 00-.759 2.541l1.621 50.151a4.342 4.342 0 004.305 4.19h33.537a4.342 4.342 0 004.307-4.264l.625-48.693a8.79 8.79 0 00-1.511-5.017z" fill="#0984E3"/><path d="M122.425 212.69H93.234a3.005 3.005 0 00-2.275 1.046 2.998 2.998 0 00-.688 2.407l4.412 28.673h25.33l5.358-28.576a2.994 2.994 0 00-1.672-3.265 2.982 2.982 0 00-1.274-.285z" fill="#fff"/><path d="M269.957 289.869h-14.04a1.862 1.862 0 00-1.861 1.862v6.162a1.86 1.86 0 001.861 1.861h2.327v9.233h9.386v-9.233h2.327a1.862 1.862 0 001.861-1.861v-6.162a1.863 1.863 0 00-1.861-1.862z" fill="#0984E3"/><path d="M284.019 346.266a72.168 72.168 0 01-12.557-42.793 1.525 1.525 0 00-1.188-1.519v-2.663h-14.828v2.626h-.204a1.507 1.507 0 00-1.075.447 1.53 1.53 0 00-.445 1.076c0 .037.002.074.005.111 1.168 16.283-2.777 30.885-11.834 43.807a4.2 4.2 0 00-.759 2.541l1.622 50.152a4.34 4.34 0 004.304 4.19h33.537a4.339 4.339 0 003.02-1.257 4.336 4.336 0 001.287-3.007l.625-48.693a8.793 8.793 0 00-1.51-5.018z" fill="#0984E3"/><path d="M278.71 362.925h-29.192a2.992 2.992 0 00-2.275 1.045 3.005 3.005 0 00-.687 2.408l4.411 28.673h25.33l5.358-28.577a3.005 3.005 0 00-.639-2.466 2.99 2.99 0 00-2.306-1.083z" fill="#fff"/><path d="M93.935 502.257h-6.66a.885.885 0 00-.882.883v2.923a.883.883 0 00.882.883h1.104v4.379h4.452v-4.379h1.104a.882.882 0 00.883-.883v-2.923a.885.885 0 00-.883-.883z" fill="#0984E3"/><path d="M100.605 529.008a34.235 34.235 0 01-5.956-20.298.721.721 0 00-.564-.721v-1.263h-7.033v1.245h-.097a.727.727 0 00-.666.447.717.717 0 00-.053.329 31.249 31.249 0 01-5.613 20.78 1.987 1.987 0 00-.36 1.205l.77 23.789a2.062 2.062 0 002.041 1.987h15.908a2.058 2.058 0 002.043-2.022l.297-23.097a4.174 4.174 0 00-.717-2.381z" fill="#0984E3"/><path d="M98.316 537.753h-15.18v7.59h15.18v-7.59z" fill="#fff"/><path d="M124.935 502.257h-6.659a.886.886 0 00-.625.258.887.887 0 00-.258.625v2.923a.885.885 0 00.883.883h1.103v4.379h4.452v-4.379h1.104a.88.88 0 00.883-.883v-2.923a.884.884 0 00-.883-.883z" fill="#0984E3"/><path d="M131.605 529.008a34.238 34.238 0 01-5.956-20.298.718.718 0 00-.564-.721v-1.263h-7.033v1.245h-.097a.728.728 0 00-.666.447.723.723 0 00-.055.276l.002.053a31.244 31.244 0 01-5.613 20.78 1.993 1.993 0 00-.36 1.205l.769 23.789a2.062 2.062 0 002.042 1.987h15.908a2.06 2.06 0 002.043-2.022l.297-23.097a4.174 4.174 0 00-.717-2.381z" fill="#0984E3"/><path d="M129.316 537.753h-15.179v7.59h15.179v-7.59z" fill="#fff"/><path d="M155.935 502.257h-6.659a.886.886 0 00-.625.258.887.887 0 00-.258.625v2.923a.885.885 0 00.883.883h1.103v4.379h4.452v-4.379h1.104a.88.88 0 00.883-.883v-2.923a.884.884 0 00-.883-.883z" fill="#0984E3"/><path d="M162.605 529.008a34.238 34.238 0 01-5.956-20.298.718.718 0 00-.564-.721v-1.263h-7.033v1.245h-.097a.728.728 0 00-.666.447.723.723 0 00-.055.276l.002.053a31.244 31.244 0 01-5.613 20.78 1.993 1.993 0 00-.36 1.205l.769 23.789a2.062 2.062 0 002.042 1.987h15.908a2.06 2.06 0 002.043-2.022l.297-23.097a4.174 4.174 0 00-.717-2.381z" fill="#0984E3"/><path d="M160.316 537.753h-15.179v7.59h15.179v-7.59z" fill="#fff"/><path d="M245.567 444.137h-14.039a1.854 1.854 0 00-1.316.545 1.868 1.868 0 00-.545 1.316v6.163a1.862 1.862 0 001.861 1.861h2.327v9.233h9.386v-9.233h2.326a1.86 1.86 0 001.862-1.861v-6.163a1.873 1.873 0 00-.546-1.316 1.855 1.855 0 00-1.316-.545z" fill="#0984E3"/><path d="M259.629 500.534a72.183 72.183 0 01-12.557-42.794 1.52 1.52 0 00-1.188-1.519v-2.662h-14.827v2.625h-.205a1.535 1.535 0 00-1.075.447 1.532 1.532 0 00-.44 1.187c1.168 16.284-2.776 30.886-11.833 43.808a4.192 4.192 0 00-.759 2.541l1.621 50.151a4.343 4.343 0 004.305 4.19h33.537a4.342 4.342 0 004.307-4.264l.625-48.692a8.792 8.792 0 00-1.511-5.018z" fill="#0984E3"/><path d="M254.32 517.193h-29.191a3 3 0 00-2.275 1.045 2.991 2.991 0 00-.688 2.407l4.412 28.674h25.33l5.358-28.577a2.99 2.99 0 00-.64-2.466 2.987 2.987 0 00-2.306-1.083z" fill="#fff"/><path d="M253.232 260.462h-83.688c5.851-31.633 4.505-69.831 0-110.911h83.688c-4.385 41.08-5.696 79.278 0 110.911z" fill="#0984E3"/><path d="M211.892 222.148c11.137 0 20.166-9.029 20.166-20.166s-9.029-20.166-20.166-20.166-20.166 9.029-20.166 20.166 9.029 20.166 20.166 20.166z" fill="#fff"/><path d="M176.602 407.672H92.914c5.851-31.633 4.505-69.832 0-110.911h83.688c-4.385 41.08-5.695 79.278 0 110.911z" fill="#0984E3"/><path d="M135.262 369.357c11.138 0 20.166-9.028 20.166-20.165 0-11.138-9.028-20.166-20.166-20.166-11.137 0-20.165 9.028-20.165 20.166 0 11.137 9.028 20.165 20.165 20.165z" fill="#fff"/><path d="M300.621 267.52h-83.688c5.851-31.633 4.505-69.831 0-110.911h83.688c-4.385 41.08-5.695 79.278 0 110.911z" fill="#E6E6E6"/><path d="M259.281 229.206c11.138 0 20.166-9.029 20.166-20.166s-9.028-20.166-20.166-20.166c-11.137 0-20.165 9.029-20.165 20.166s9.028 20.166 20.165 20.166z" fill="#fff"/><path d="M300.621 262.479h-83.688c5.851-31.633 4.505-69.832 0-110.911h83.688c-4.385 41.079-5.695 79.278 0 110.911z" fill="#0984E3"/><path d="M259.281 224.164c11.138 0 20.166-9.028 20.166-20.166 0-11.137-9.028-20.165-20.166-20.165-11.137 0-20.165 9.028-20.165 20.165 0 11.138 9.028 20.166 20.165 20.166z" fill="#fff"/><path d="M300.621 267.52h-83.688c5.851-31.633 4.505-69.831 0-110.911h83.688c-4.385 41.08-5.695 79.278 0 110.911z" fill="#0984E3"/><path d="M259.281 229.206c11.138 0 20.166-9.029 20.166-20.166s-9.028-20.166-20.166-20.166c-11.137 0-20.165 9.029-20.165 20.166s9.028 20.166 20.165 20.166z" fill="#fff"/><path d="M319.779 254.413H45.525v30.248h274.254v-30.248zM319.779 404.647H45.525v30.249h274.254v-30.249zM319.779 554.882H45.525v30.248h274.254v-30.248z" fill="#E6E6E6"/><path d="M796.855 677.599l-68.325-48.326c23.043-22.447 44.002-54.411 64.046-90.551l68.324 48.326c-27.301 31.006-50.429 61.436-64.045 90.551z" fill="#0984E3"/><path d="M796.873 626.148c11.138 0 20.166-9.029 20.166-20.166s-9.028-20.166-20.166-20.166c-11.137 0-20.165 9.029-20.165 20.166s9.028 20.166 20.165 20.166z" fill="#fff"/><path d="M467.262 457.078h-7.5a.998.998 0 00-.703.291.999.999 0 00-.291.704v3.292a.995.995 0 00.994.994h1.243v4.932h5.015v-4.932h1.242a.995.995 0 00.995-.994v-3.292a.995.995 0 00-.995-.995z" fill="#E6E6E6"/><path d="M474.774 487.206a38.56 38.56 0 01-6.708-22.861.808.808 0 00-.634-.811v-1.423h-7.921v1.403h-.109a.807.807 0 00-.575.239.814.814 0 00-.237.575l.002.059a35.193 35.193 0 01-6.321 23.403 2.237 2.237 0 00-.406 1.357l.866 26.792a2.323 2.323 0 002.3 2.238h17.916a2.323 2.323 0 002.301-2.278l.333-26.012a4.69 4.69 0 00-.807-2.681z" fill="#0984E3"/><path opacity=".2" d="M465.699 458.151a2.148 2.148 0 01-2.145 2.145 2.146 2.146 0 01-2.146-2.145" fill="#000"/><path d="M471.285 492.368h-15.124v10.083h15.124v-10.083z" fill="#fff"/><path d="M704.602 561.742h-14.039a1.86 1.86 0 00-1.861 1.861v6.162a1.863 1.863 0 001.861 1.862h2.327v9.233h9.386v-9.233h2.326a1.864 1.864 0 001.862-1.862v-6.162a1.86 1.86 0 00-1.862-1.861z" fill="#E6E6E6"/><path d="M718.664 618.139a72.186 72.186 0 01-12.557-42.794 1.526 1.526 0 00-.322-.972 1.529 1.529 0 00-.866-.547v-2.663h-14.827v2.626h-.204a1.517 1.517 0 00-1.076.447 1.521 1.521 0 00-.444 1.076c0 .037.002.074.004.111 1.168 16.284-2.776 30.886-11.833 43.808a4.19 4.19 0 00-.759 2.541l1.621 50.151a4.343 4.343 0 004.305 4.19h33.537a4.342 4.342 0 004.307-4.264l.625-48.693a8.79 8.79 0 00-1.511-5.017z" fill="#0984E3"/><path opacity=".2" d="M701.676 563.75a4.015 4.015 0 01-6.856 2.839 4.015 4.015 0 01-1.176-2.839" fill="#000"/><path d="M713.355 634.797h-29.191a3.007 3.007 0 00-2.275 1.046 3.009 3.009 0 00-.688 2.407l4.412 28.673h25.33l5.358-28.576a2.995 2.995 0 00-1.672-3.265 2.997 2.997 0 00-1.274-.285z" fill="#fff"/><path d="M664.546 677.52h-83.688c5.851-31.633 4.505-69.832 0-110.912h83.688c-4.385 41.08-5.695 79.279 0 110.912z" fill="#0984E3"/><path d="M623.206 639.205c11.138 0 20.166-9.028 20.166-20.166 0-11.137-9.028-20.165-20.166-20.165-11.137 0-20.165 9.028-20.165 20.165 0 11.138 9.028 20.166 20.165 20.166z" fill="#fff"/><path d="M322.243 328.466l18.787-1.708 11.956-29.034-21.349-11.956-9.394 42.698zM494.66 408.174a10.589 10.589 0 00-4.452-13.068 10.601 10.601 0 00-4.749-1.449l-29.17-1.739-4.295 14.282 30.029 8.247a10.593 10.593 0 0012.637-6.273z" fill="#FFB8B8"/><path d="M463.339 414.687l-.321-26.8-64.793-10.338-49.915-57.248a16.342 16.342 0 00-21.295-2.912 16.338 16.338 0 00-2.846 24.922l41.18 50.678 97.99 21.698z" fill="#575A89"/><path d="M307.726 716.167h17.079l42.363-191.534 43.887 59.169 25.619 128.095H452.9l-3.416-137.489-57.216-146.882h-56.362c-15.402 27.875-27.484 56.609-13.663 86.251l-14.517 202.39z" fill="#2F2E41"/><path d="M426.204 727.8a4.471 4.471 0 00.446 3.645 4.455 4.455 0 003.03 2.074l41.793 7.416a6.879 6.879 0 007.801-4.713 6.835 6.835 0 00-3.342-8.126 63.893 63.893 0 01-23.048-20.038c-4.594 4.277-9.728 3.875-15.179.723l-5.783.723-5.718 18.296zM299.818 727.8a4.455 4.455 0 001.737 5.008c.522.358 1.115.6 1.738.711l41.793 7.416a6.879 6.879 0 007.801-4.713 6.835 6.835 0 00-3.342-8.126 63.901 63.901 0 01-23.048-20.038c-4.594 4.277-9.728 3.875-15.179.723l-5.783.723-5.717 18.296z" fill="#2F2E41"/><path d="M353.413 308.398c13.205 0 23.911-10.705 23.911-23.911 0-13.206-10.706-23.911-23.911-23.911-13.206 0-23.911 10.705-23.911 23.911 0 13.206 10.705 23.911 23.911 23.911z" fill="#FFB8B8"/><path d="M332.064 433.931l62.339-1.708-18.308-57.619c11.378-18.24-.073-36.46-16.278-54.677l-12.809-8.54-20.495-1.708a50.313 50.313 0 00-13.549 35.051c.405 27.826 5.333 58.118 19.1 89.201z" fill="#575A89"/><path d="M475.291 472.716a10.59 10.59 0 00-2.749-16.966l-26.133-13.075-9.568 11.441 24.364 19.395a10.59 10.59 0 0014.086-.795z" fill="#FFB8B8"/><path d="M443.933 466.382l10.248-24.765-55.502-34.994-23.37-72.268a16.337 16.337 0 00-18.432-11.054 16.342 16.342 0 00-11.308 7.991 16.33 16.33 0 00-1.113 13.802l17.923 62.791 81.554 58.497z" fill="#575A89"/><path d="M314.13 275.093c0 9.304 6.043 23.713 13.664 29.889 5.128 4.156 11.904 3.981 14.517-1.708 2.68-5.835 11.92-19.552 28.181-28.181 21.678-11.502-7.688-31.181-28.181-28.18-15.4 2.254-28.181 12.617-28.181 28.18z" fill="#2F2E41"/><path d="M328.648 262.284c9.432 0 17.079-7.647 17.079-17.079 0-9.433-7.647-17.08-17.079-17.08-9.433 0-17.08 7.647-17.08 17.08 0 9.432 7.647 17.079 17.08 17.079z" fill="#2F2E41"/><path d="M348.289 239.227a17.068 17.068 0 00-15.798-17.015c.424-.031.848-.064 1.28-.064a17.079 17.079 0 110 34.158c-.432 0-.856-.033-1.28-.064a17.067 17.067 0 0015.798-17.015z" fill="#2F2E41"/><path d="M353.84 293.027c2.122 0 3.842-2.294 3.842-5.124 0-2.83-1.72-5.124-3.842-5.124-2.123 0-3.843 2.294-3.843 5.124 0 2.83 1.72 5.124 3.843 5.124z" fill="#FFB8B8"/><path d="M837.751 684.845H571.879l-56.301-266.151h-48.049v-11.942h57.729l56.301 266.15h256.192v11.943z" fill="#3F3D56"/><path d="M610.841 733.468c14.134 0 25.591-11.458 25.591-25.591 0-14.134-11.457-25.592-25.591-25.592s-25.591 11.458-25.591 25.592c0 14.133 11.457 25.591 25.591 25.591zM801.923 733.468c14.134 0 25.592-11.458 25.592-25.591 0-14.134-11.458-25.592-25.592-25.592-14.133 0-25.591 11.458-25.591 25.592 0 14.133 11.458 25.591 25.591 25.591zM832.904 679.221H574.225l-45.641-225.552h347.151a12.265 12.265 0 0112.116 14.167l-42.833 201.025a12.208 12.208 0 01-12.114 10.36zm-255.87-3.412h255.87a8.806 8.806 0 008.742-7.478l42.833-201.025a8.86 8.86 0 00-2.017-7.126 8.843 8.843 0 00-6.727-3.099H532.726l44.308 218.728z" fill="#3F3D56"/><path d="M624.513 678.499l-29.89-222.846 3.366-.556 29.89 222.846-3.366.556zM790.712 676.788l-3.369-.546 29.017-221.14 3.369.546-29.017 221.14zM711.527 455.375h-3.412v222.846h3.412V455.375z" fill="#3F3D56"/><path d="M546.014 515.088l-.009 3.413 330.295.799.008-3.412-330.294-.8zM853 620.494l-290.171 1.984.024 3.412 290.171-1.984-.024-3.412zM472.648 421.253c10.364 0 18.767-4.583 18.767-10.236 0-5.654-8.403-10.237-18.767-10.237-10.365 0-18.767 4.583-18.767 10.237 0 5.653 8.402 10.236 18.767 10.236z" fill="#3F3D56"/></g><defs><clipPath id="clip0"><path fill="#fff" d="M0 0h888v741.048H0z"/></clipPath></defs></svg>