<svg width="800" height="500" viewBox="0 0 977 841" fill="none" xmlns="http://www.w3.org/2000/svg"><g clip-path="url(#clip0)"><path d="M890.34 455.97c-37.95 64.71-32.78 151.72-18 220.09 4.94 22.89 10.69 47 5.57 72.88-6.26 31.6-27.3 56.75-48.39 71.31-38.44 26.55-81.74 26.74-112.74.5-26.79-22.68-43.93-62.84-71.32-84.27-45.83-35.85-110.08-12.18-166.21 23.41-39.71 25.18-83.48 56.95-119.38 40.25-25.26-11.75-40.48-46.09-47.16-83.67-3.23-18.14-5-38-12.95-51.71-4.73-8.15-11.34-13.53-18.21-17.91-62.77-40-149.46-3.61-209.85-49.08-40.79-30.71-63.06-95.42-69.43-165-6.37-69.58 1.45-144.33 10.86-218 6.69-52.33 15.46-108.4 41.74-151.41 27.8-45.5 70.64-66.46 107.44-63 36.8 3.46 68.34 28 95.35 58.18 33.75 37.74 63.91 86.2 108.32 97.67 30.25 7.81 63.66-2.67 96.08-8.89 54.19-10.4 107.39-8.86 160.2-6.5 50.56 2.26 101.41 5.34 148.2 23.55 33.11 12.89 58.17 40.64 89 58.38 20.07 11.56 42.95 12.6 61.55 28.19 22.92 19.21 42.37 55.15 32.14 101.3-9.73 43.91-42.63 69.38-62.81 103.73z" fill="url(#paint0_linear)"/><path d="M909.65 644.31s-.8-1.07-1.91-2.27l.32-.11s-14.28-35.69-11.1-50.76c3.18-15.07-12.69-51.55-12.69-51.55s-23.41-47.94-12.33-86.2a102.667 102.667 0 002.86-13.73c3.31-22.66 2.14-27.33-3.41-35.61l-.61-.89a6.999 6.999 0 001.59-2.35c4.76-12.69-22.2-35.69-15.03-57.11 6.62-19.85-10.61-60.81-13.17-66.7l-.29-.67-.86.28a20.92 20.92 0 015.66-13.73l.16-.16c2.38-2.19 5.27-3.8 7.5-6.15l.13-.15c.22-.21.45-.42.66-.64 2.21-2.32 3.72-5.76 2.52-8.74-1.09-2.72-4.15-4.38-4.87-7.22a37.304 37.304 0 01-.32-3.85c-.58-4-4.47-6.51-8-8.49-4.39-2.48-9-5-14.07-5.06-6.86 0-13 4.6-19.81 5.17-2.32.2-4.73-.08-6.93.69a15.417 15.417 0 00-4.55 2.92 22.381 22.381 0 00-2.22 2c-1.54 1.44-2.85 3.14-2.79 5.18a5.638 5.638 0 001.94 3.85 25.374 25.374 0 00-4.213 21.032 25.393 25.393 0 004.845 9.86 25.394 25.394 0 008.558 6.888c.08.55.16 1.11.24 1.7 1 7.51 1.59 18.13-1.08 26.45-11.39 5.87-29.14 15.44-32.32 19.69a3.008 3.008 0 00-.42 2.49c-.09.39-.11.793-.06 1.19-2.49.57-5.8 0-9.83-3.68-9.52-8.72-39.65-34.9-39.65-34.9s-13.48-33.31-23-27c-9.52 6.31 11.1 37.28 11.1 37.28l45.14 48.4s1.59 10.31 18.24 4.76c5.5-1.83 10.47-3.58 14.67-5.09l1 .85c-3.75 21.94-5.69 51.18 8.14 59.76a13.378 13.378 0 012.3 4.82c-.07.26-.14.53-.2.79a76.176 76.176 0 00-2 13.34 42.417 42.417 0 00-3.51 18.94l-5.3 75.51s-.79 16.65 4.76 29.34c5.55 12.69 23 76.14 11.1 80.9l1.13.15c-3.41 3.51-9.15 8.83-13.52 9.88-6.64 1.58-4.78 11.76 9.94 13.46 14.72 1.7 16.49 1.56 26.84-7.07 9.12-7.6 10.57-11 10.78-11.73l.52.07s-5.55-20.62 0-29.34c5.55-8.72-12.68-61.85-12.68-61.85-.153-6.789.097-13.581.75-20.34 2.8 7.33 4.8 12.41 4.8 12.41s4.76 23 10.31 27c5.55 4 34.9 58.69 30.14 82.48l-.55 2.77 1.34-.39h.12c-1.83 4.53-5.16 11.69-8.84 14.32-5.55 4 0 12.69 14.28 8.72 14.28-3.97 15.86-4.76 22.21-16.65 6.35-11.89 5.54-15.16 5.54-15.16z" fill="url(#paint1_linear)"/><path d="M804.55 432.55l-3.48-4.29a41.482 41.482 0 00-4.91 21.57l-5.18 73.83s-.78 16.28 4.65 28.69c5.43 12.41 22.49 74.44 10.86 79.09l34.85 4.71s-5.43-20.16 0-28.69c5.43-8.53-12.41-60.48-12.41-60.48s-1.55-43.42 13.18-53.51c14.73-10.09-37.56-60.92-37.56-60.92z" fill="#555388"/><path d="M810.43 628.53s-9.57 11.18-16.05 12.73c-6.48 1.55-4.67 11.49 9.72 13.16s16.12 1.53 26.25-6.91c10.13-8.44 10.58-11.61 10.58-11.61s-2-7.5-4.42-7.66c-2.42-.16-26.08.29-26.08.29z" fill="#603556"/><path opacity=".1" d="M806.88 434.88l-5.8-6.62a41.482 41.482 0 00-4.91 21.57l-5.18 73.83s-.78 16.28 4.65 28.69c5.43 12.41 22.49 74.44 10.86 79.09l34.84 4.71s-5.43-20.16 0-28.69c5.43-8.53-12.41-60.48-12.41-60.48s-1.55-43.42 13.18-53.51c14.73-10.09-35.23-58.59-35.23-58.59z" fill="#000"/><path d="M876.28 644.64s-4.65 14-10.08 17.84 0 12.41 14 8.53c14-3.88 15.51-4.65 21.71-16.28 6.2-11.63 5.43-14.73 5.43-14.73s-4.65-6.2-7-5.43c-2.35.77-24.06 10.07-24.06 10.07z" fill="#603556"/><path d="M847.59 296.46s-62.81 34.89-48.08 24.81c9.9-6.77 9.3-24.74 7.84-35.81-.46-3.45-1-6.23-1.33-7.79-.19-.88-.31-1.37-.31-1.37s30.46-18.28 28.75-7.29c0 .1 0 .2-.05.3a11.841 11.841 0 00-.23 2.23c-.21 11.3 13.41 24.92 13.41 24.92z" fill="#C87486"/><path d="M905.75 637.66l-31 10.86-1.31.38.54-2.71c4.65-23.26-24-76.77-29.47-80.65-5.47-3.88-10.1-26.39-10.1-26.39s-10.16-51.18-11.71-62c-.39-2.71-1.81-4.87-3.53-7.85a62.119 62.119 0 01-6-14.36c-3.41-12-11.36-33.3-8.44-45.35.59-2.45-1.82 3.81-1 1.42l.47-1.32 62.78-8.54a46.901 46.901 0 012.92 3.95c4.75 7.05 4.44 7.05 5.44 20.45a138.302 138.302 0 01-3.41 24c-8.45 37.63 10.61 88 10.61 88s15.51 35.67 12.41 50.4c-3.1 14.73 10.8 49.71 10.8 49.71z" fill="#555388"/><path opacity=".1" d="M869.9 405.09c-9.29 11.65-68.8 20.7-68.06 17a7.86 7.86 0 00-.28-3.82 75.584 75.584 0 012.14-7.27l.47-1.32 62.81-8.53a47.132 47.132 0 012.92 3.94z" fill="#000"/><path d="M842.94 280.15s-25.6 7.78-32.6 25.62 5.31 18.81 5.31 18.81-22 58-16.17 88.2c0 0 3.1 3.88 2.33 7.75s64.36-6.2 69-18.61c4.64-12.41-21.71-34.89-14.73-55.83 6.98-20.94-13.14-65.94-13.14-65.94z" fill="#E2E2EC"/><path opacity=".1" d="M834.41 270.87a2.45 2.45 0 01-.23.67c-1.06 2-4.43-.19-3.26 2.81-4.5 4.52-5.92 13.57-12.79 13.57a24.67 24.67 0 01-10.79-2.45c-.46-3.45-1-6.23-1.33-7.79 3-1.78 27-15.68 28.44-8.66a4.611 4.611 0 01-.04 1.85z" fill="#000"/><path d="M818.12 286.38c13.702 0 24.81-11.108 24.81-24.81 0-13.702-11.108-24.81-24.81-24.81-13.702 0-24.81 11.108-24.81 24.81 0 13.702 11.108 24.81 24.81 24.81z" fill="#C87486"/><path opacity=".1" d="M810.96 250.94c-3.79-.38-7.71-.8-11-2.71-1.91-1.1-3.66-2.92-3.72-5.13-.07-2.6 2.12-4.63 4.13-6.28a15.07 15.07 0 014.45-2.85c2.15-.75 4.5-.48 6.77-.67 6.68-.56 12.66-5.1 19.37-5.06 4.93 0 9.46 2.52 13.75 4.95 3.43 1.94 7.24 4.4 7.81 8.3.038 1.258.142 2.513.31 3.76.71 2.78 3.7 4.4 4.77 7.06 1.17 2.91-.31 6.28-2.47 8.55-2.16 2.27-5 3.83-7.27 5.95a20.388 20.388 0 00-6.52 15.34 1.99 1.99 0 01-.17 1.11 1.939 1.939 0 01-1.4.7c-2.47.46-5.52.71-7-1.33-1.48-2.04-.31-5.44-2-7.45-2.15-2.59-6.67-.53-9.58-2.23a5.82 5.82 0 01-2.2-2.63c-2.4-5.17.35-9.23 1.35-14.17 1.17-5.77-5.31-4.8-9.38-5.21z" fill="#000"/><path d="M811.74 250.15c-3.79-.38-7.71-.8-11-2.71-1.91-1.1-3.66-2.92-3.72-5.13-.07-2.6 2.12-4.63 4.13-6.28a15.083 15.083 0 014.45-2.85c2.15-.75 4.5-.48 6.77-.67 6.68-.56 12.66-5.1 19.37-5.06 4.93 0 9.46 2.52 13.75 4.95 3.43 1.94 7.24 4.4 7.81 8.3.038 1.258.142 2.513.31 3.76.71 2.78 3.7 4.4 4.77 7.06 1.17 2.91-.31 6.28-2.47 8.55-2.16 2.27-5 3.83-7.27 5.95a20.396 20.396 0 00-4.914 6.99 20.392 20.392 0 00-1.616 8.39 2 2 0 01-.17 1.11 1.939 1.939 0 01-1.4.7c-2.47.46-5.52.71-7-1.33-1.48-2.04-.31-5.44-2-7.45-2.15-2.59-6.67-.53-9.58-2.23a5.82 5.82 0 01-2.2-2.63c-2.42-5.18.34-9.27 1.34-14.26 1.18-5.71-5.3-4.73-9.36-5.16z" fill="#603456"/><path d="M841.4 536.07s-9.69-190.21-49.47-257.53c0 0-29.17-53.28-53.55-68.82v-6.14c-39.78-27.54-88.73 0-88.73 0v2.72l-10.2 8.5-45.93-.16a22.14 22.14 0 00-17.05-8H366.89a22.131 22.131 0 00-16.3 7.14h-47.7s-2.81-3.27-10.2-6.56v-3.64c-39.78-27.54-88.73 0-88.73 0v7.39a13.11 13.11 0 00-3.06 2.81s-40.29 27-49.47 60.68c0 0-49.47 148.4-50.49 264.67-1.02 116.27 43.86 132.59 67.31 135.65 23.45 3.06 65.27-1 106.07-104l17.34-60.17s3.06-35.7 39.78-13.26c36.72 22.44 69.35-12.24 69.35-12.24h137.7s45.85 28.52 87.71 6.04c0 0 16.32-21.42 31.62 51 0 0 46.92 148.91 119.33 133.61 72.41-15.3 64.25-139.69 64.25-139.69z" fill="url(#paint2_linear)"/><path d="M209.18 219.08v-11s48-27 87 0v10l-87 1zM646.18 219.08v-11s48-27 87 0v10l-87 1z" fill="#535461"/><path opacity=".1" d="M209.18 219.08v-11s48-27 87 0v10l-87 1zM646.18 219.08v-11s48-27 87 0v10l-87 1z" fill="#000"/><path d="M353.18 218.08h-47s-12-14-52-13-48 13-48 13-39.5 26.5-48.5 59.5c0 0-48.5 145.5-49.5 259.5s43 130 66 133 64-1 104-102l17-59s3-35 39-13 68-12 68-12h135s45 28 86 6c0 0 16-21 31 50 0 0 46 146 117 131s63-137 63-137-9.5-186.5-48.5-252.5c0 0-37.5-68.5-62.5-71.5 0 0-54-10-75-1l-12 10-283-1z" fill="#34354B"/><path d="M244.18 403.08c48.049 0 87-38.951 87-87s-38.951-87-87-87-87 38.951-87 87 38.951 87 87 87zM698.18 403.08c48.049 0 87-38.951 87-87s-38.951-87-87-87-87 38.951-87 87 38.951 87 87 87z" fill="#E2E2EC"/><path d="M362.18 474.08c34.794 0 63-28.206 63-63s-28.206-63-63-63-63 28.206-63 63 28.206 63 63 63zM580.18 474.08c34.794 0 63-28.206 63-63s-28.206-63-63-63-63 28.206-63 63 28.206 63 63 63z" fill="#E2E2EC"/><path d="M473.18 436.08c9.941 0 18-8.059 18-18s-8.059-18-18-18-18 8.059-18 18 8.059 18 18 18z" fill="#0984E3"/><path d="M445.67 361.93a3.93 3.93 0 10-.001-7.861 3.93 3.93 0 00.001 7.861zM460.39 361.93a3.93 3.93 0 10-.001-7.861 3.93 3.93 0 00.001 7.861zM458.43 380.58a3.93 3.93 0 10-.001-7.861 3.93 3.93 0 00.001 7.861zM472.18 381.08a4 4 0 100-8 4 4 0 000 8zM485.91 380.58a3.93 3.93 0 10-.001-7.861 3.93 3.93 0 00.001 7.861zM452.54 371.75a3.93 3.93 0 10-.001-7.861 3.93 3.93 0 00.001 7.861zM465.18 372.08a4 4 0 100-8 4 4 0 000 8zM478.18 372.08a4 4 0 100-8 4 4 0 000 8zM491.8 371.75a3.93 3.93 0 10-.001-7.861 3.93 3.93 0 00.001 7.861zM472.18 362.08a4 4 0 100-8 4 4 0 000 8zM486.18 362.08a4 4 0 100-8 4 4 0 000 8zM497.69 361.93a3.93 3.93 0 10-.001-7.861 3.93 3.93 0 00.001 7.861z" fill="#E2E2EC"/><path d="M328.68 225.08h-5a8.5 8.5 0 00-8.5 8.5v21a8.5 8.5 0 008.5 8.5h5a8.5 8.5 0 008.5-8.5v-21a8.5 8.5 0 00-8.5-8.5zM620.68 225.08h-5a8.5 8.5 0 00-8.5 8.5v21a8.5 8.5 0 008.5 8.5h5a8.5 8.5 0 008.5-8.5v-21a8.5 8.5 0 00-8.5-8.5z" fill="#0984E3"/><path d="M699.18 287.08c13.255 0 24-10.745 24-24s-10.745-24-24-24-24 10.745-24 24 10.745 24 24 24zM648.18 338.08c13.255 0 24-10.745 24-24s-10.745-24-24-24-24 10.745-24 24 10.745 24 24 24zM752.18 335.08c13.255 0 24-10.745 24-24s-10.745-24-24-24-24 10.745-24 24 10.745 24 24 24zM703.18 388.08c13.255 0 24-10.745 24-24s-10.745-24-24-24-24 10.745-24 24 10.745 24 24 24z" fill="#34354B"/><path d="M574.43 211.08h-205.5c-12.012 0-21.75 9.738-21.75 21.75v89.5c0 12.012 9.738 21.75 21.75 21.75h205.5c12.012 0 21.75-9.738 21.75-21.75v-89.5c0-12.012-9.738-21.75-21.75-21.75z" fill="#E2E2EC"/><path d="M684.68 273.08l14-24 15 24h-29zM660.68 303.08h-25v22h25v-22zM752.18 325.08c7.732 0 14-6.268 14-14s-6.268-14-14-14-14 6.268-14 14 6.268 14 14 14zM691.68 352.83l22.5 22.5M714.68 352.83l-23 22" stroke="#0984E3" stroke-width="2" stroke-miterlimit="10"/><g><path d="M779.34 330.58s-5.43 8.53-14.73 0-38.77-34.12-38.77-34.12-13.18-32.57-22.5-26.36c-9.32 6.21 10.86 36.45 10.86 36.45l44.2 47.3s1.55 10.08 17.84 4.65 27.92-10.08 27.92-10.08l-24.82-17.84z" fill="#C87486"/><path opacity=".1" d="M842.94 340.66l-43.42 20.16s-29.47-22.48-24.82-28.67c4.65-6.19 41.1-24 41.1-24s37.22 7.7 27.14 32.51z" fill="#000"/><path d="M842.94 339.15l-43.42 20.16s-29.47-22.49-24.81-28.69c4.66-6.2 41.1-24 41.1-24s37.21 7.68 27.13 32.53z" fill="#E2E2EC"/></g><g><path d="M259.34 296.68l-11.6 10.26a5.378 5.378 0 01-7.11 0l-11.62-10.26a5.367 5.367 0 01-1.82-4v-28.23a5.38 5.38 0 015.38-5.37h23.25a5.37 5.37 0 015.38 5.38v28.2a5.365 5.365 0 01-1.86 4.02zM259.34 335.47l-11.6-10.25a5.378 5.378 0 00-7.11 0l-11.62 10.26a5.367 5.367 0 00-1.82 4v28.2a5.37 5.37 0 005.38 5.38h23.25a5.382 5.382 0 003.804-1.569 5.378 5.378 0 001.576-3.801v-28.2a5.365 5.365 0 00-1.86-4.02zM224.79 331.26l10.26-11.62a5.378 5.378 0 000-7.11l-10.26-11.62a5.375 5.375 0 00-4-1.82h-28.2a5.38 5.38 0 00-5.37 5.38v23.25a5.37 5.37 0 005.38 5.38h28.2a5.374 5.374 0 003.99-1.84zM263.58 331.26l-10.24-11.63a5.369 5.369 0 010-7.11l10.26-11.62a5.367 5.367 0 014-1.82h28.2a5.37 5.37 0 015.38 5.38v23.25a5.382 5.382 0 01-1.569 3.804 5.378 5.378 0 01-3.801 1.576h-28.2a5.376 5.376 0 01-4.03-1.83z" fill="#34354B"/><path d="M229.18 252.08h30l-15-13-15 13zM229.18 380.08h30l-15 13-15-13zM180.18 301.08v30l-13-15 13-15zM308.18 301.08v30l13-15-13-15z" fill="#0984E3"/></g><g><path d="M578.18 443.08c23.196 0 42-18.804 42-42s-18.804-42-42-42-42 18.804-42 42 18.804 42 42 42z" fill="#34354B"/><path d="M578.18 429.08c15.464 0 28-12.536 28-28s-12.536-28-28-28-28 12.536-28 28 12.536 28 28 28z" stroke="#0984E3" stroke-width="2" stroke-miterlimit="10"/></g><g fill="#34354B"><path d="M360.18 443.08c23.196 0 42-18.804 42-42s-18.804-42-42-42-42 18.804-42 42 18.804 42 42 42z"/><path d="M360.18 429.08c15.464 0 28-12.536 28-28s-12.536-28-28-28-28 12.536-28 28 12.536 28 28 28z" stroke="#0984E3" stroke-width="2" stroke-miterlimit="10"/></g></g><defs><linearGradient id="paint0_linear" x1="74" y1="23.5" x2="849.5" y2="824" gradientUnits="userSpaceOnUse"><stop offset=".344" stop-color="#0984E3"/><stop offset="1" stop-color="#09AFE3"/></linearGradient><linearGradient id="paint1_linear" x1="804.12" y1="677.05" x2="804.12" y2="222.41" gradientUnits="userSpaceOnUse"><stop offset="0" stop-color="gray" stop-opacity=".25"/><stop offset=".54" stop-color="gray" stop-opacity=".12"/><stop offset="1" stop-color="gray" stop-opacity=".1"/></linearGradient><linearGradient id="paint2_linear" x1="431938" y1="343335" x2="431938" y2="107584" gradientUnits="userSpaceOnUse"><stop offset="0" stop-color="gray" stop-opacity=".25"/><stop offset=".54" stop-color="gray" stop-opacity=".12"/><stop offset="1" stop-color="gray" stop-opacity=".1"/></linearGradient><clipPath id="clip0"><path fill="#fff" d="M0 0h976.68v840.3H0z"/></clipPath></defs></svg>