<svg width="1074" height="739" fill="none" xmlns="http://www.w3.org/2000/svg"><g clip-path="url(#clip0)"><path d="M537 739c296.577 0 537-21.938 537-49s-240.423-49-537-49S0 662.938 0 690s240.423 49 537 49z" fill="#0984E3"/><path opacity=".1" d="M404.83 77h-69.66a5.17 5.17 0 00-5.17 5.17v19.66a5.17 5.17 0 005.17 5.17h69.66a5.17 5.17 0 005.17-5.17V82.17a5.17 5.17 0 00-5.17-5.17zM642.83 50h-69.66a5.17 5.17 0 00-5.17 5.17v19.66a5.17 5.17 0 005.17 5.17h69.66a5.17 5.17 0 005.17-5.17V55.17a5.17 5.17 0 00-5.17-5.17zM598.83 355h-69.66a5.17 5.17 0 00-5.17 5.17v19.66a5.17 5.17 0 005.17 5.17h69.66a5.17 5.17 0 005.17-5.17v-19.66a5.17 5.17 0 00-5.17-5.17zM634.83 388h-69.66a5.17 5.17 0 00-5.17 5.17v19.66a5.17 5.17 0 005.17 5.17h69.66a5.17 5.17 0 005.17-5.17v-19.66a5.17 5.17 0 00-5.17-5.17zM848.83 373h-69.66a5.17 5.17 0 00-5.17 5.17v19.66a5.17 5.17 0 005.17 5.17h69.66a5.17 5.17 0 005.17-5.17v-19.66a5.17 5.17 0 00-5.17-5.17zM197.83 397h-69.66a5.17 5.17 0 00-5.17 5.17v19.66a5.17 5.17 0 005.17 5.17h69.66a5.17 5.17 0 005.17-5.17v-19.66a5.17 5.17 0 00-5.17-5.17zM573.83 421h-69.66a5.17 5.17 0 00-5.17 5.17v19.66a5.17 5.17 0 005.17 5.17h69.66a5.17 5.17 0 005.17-5.17v-19.66a5.17 5.17 0 00-5.17-5.17z" fill="#0984E3"/><path d="M718.91 182.21L682.25 75.79l-13.18 2-11.8 1.51c.3-4 .82-18.36-6.5-25.89-.71-2.58-2.58-5.51-6.18-8.81-17.54-16.08-21.19 16.81-21.19 16.81s-4 6.94-9.51 16.64L611 77.5l-.82 7.16c-12.2 21.57-28.41 50.76-28.41 53.5 0 4.39-2.19 10.23-2.19 10.23s-12.42 20.46-16.81 30.7a49.097 49.097 0 01-11 16.08s-1.06.81-2.8 2a24.987 24.987 0 011-5.71c1.6-5.23 5.32-9.71 6.31-15.09.232-1.29.319-2.601.26-3.91.23-6.31-2.84-12.52-4.12-18.83-1.49-7.31-.69-15.36-4.59-21.71-3-4.85-8.32-7.87-13.85-9.26-5.08-1.27-10.08-.82-15.2-1.36-4.7-.5-9.19-2.58-13.89-3.35a17.929 17.929 0 00-7.62 0c-7.95 2.19-10.44 12.21-16.58 17.72-2.21 2-4.92 3.38-6.92 5.57-2.91 3.19-3.92 7.64-3.77 12a25.662 25.662 0 00.26 4.37c.76 5.23 2.78 10.18 4 15.31a53.03 53.03 0 011.49 11.59c0 .88 0 1.76-.08 2.63a9.235 9.235 0 01-1.35 5c-1.11 1.53-2.94 2.27-4.57 3.25a35.455 35.455 0 01-11.52-16.34s-.27.34-.73 1v-1s-10-14.68-11.52-26.67l3.48.36 8-112.55-20.43-3c-.57-5.81-2.12-14.24-6.23-20.39 3.43-6.76 5.16-15.91-9.88-16.82-17.6-1.07-16.52 12.64-14.65 20.14a50.421 50.421 0 00-1 12.45l-18-2.62-.1 1.46h-4.28l-13.1 114.82 11.16-.56 40.9 4.26c3.27 29.73 8.41 66.47 14.51 75.13.203.292.427.57.67.83v52.61s-.73 68-13.16 78.93a64.998 64.998 0 0123.78-3.73c-.14.45-.28.93-.42 1.44a127.608 127.608 0 00-3.79 20.48c-.173 1.527-.33 3.12-.47 4.78a257.852 257.852 0 00.63 45.73c5.12 54.08 13.16 92.82 13.16 92.82l2.24 31.44s-2.19 53.35 3.65 70.89a26.456 26.456 0 007.48 4.85c.05.5.11 1 .16 1.53s.13 1.35.2 2.05c-2.62 1.19-7.51 5.91-8.57 24.45 0 0 1.46 13.89-2.19 20.46s-1.46 25.58 9.5 27.77a58.585 58.585 0 0021.19 0s5.12 0 1.46-18.27l-.64-4.68c-.08-9.05.3-18.74 2.1-21.63 3.65-5.85-1.46-11.69-1.46-11.69s-.36.2-.95.47c-.94-5.05-2.17-13.25-1.73-19.51 0-.53.09-1 .15-1.55a30.78 30.78 0 006.19-4.27v-69.41s-.73-106.7 7.31-108.9c0 0 3.65 38.73 2.19 57.74-1.46 19.01 2.19 39.47 2.19 39.47l1.46 77.47s1.4.67 3.66 1.46l-.15 1.41c-.89 8.61-2.32 21.61-3.62 29.57a5.887 5.887 0 00-3.55 4.1c-2.19 7.31-.73 25.58-5.12 30.7-2.59 3-5.69 9.11-4.17 13.43-.95 3.79-.53 9.71 10.75 10.69 16.81 1.46 24.12-7.31 24.12-7.31s2.19-3.65 0-10.23.73-18.27.73-18.27 1.57-9.92-1-11.22c-.22-1.18-.42-1.93-.42-1.93a8.8 8.8 0 00-2.31-6.08c-.06-7.65.25-21.8 2.94-31.12.16-.53.32-1 .49-1.55a19.753 19.753 0 006.18-2.17s-.73-16.81 4.39-28.5c5.12-11.69 2.19-58.47 2.19-58.47s-2.19-12.29.9-22.25a218.264 218.264 0 007.94-33.8l4.31-30.19s11.35-36.75-3.6-74.47c-.61-1.56-1.28-3.12-2-4.68a102.39 102.39 0 00-4.16-8.13c-.24-.42-.5-.85-.75-1.27 1.57-.39 2.46-.62 2.46-.62s-19.73-46-7.31-69.43c0 0 7-7 8-14.69 1.24-10.17 2.59-20.33 4.81-30.33l.39-1.76s.06-.34.16-.95c.28-.18.55-.37.82-.57 21.06-15.38 39.22-79.6 39.22-79.6l5.85-11 2.78-5.88-5.7 49.73 44.58 11 28.5-2.19-.08-6.13 21.72-1.69 26.27-11.03zm-282.6-145l-7.92-1.16c-1.39-7.15-2.33-11.84-2.33-11.84a43.456 43.456 0 004.39-6.57c3.83 5.86 5.3 13.86 5.86 19.53v.04zm-29.58-15.35c.55 1.88 1.05 3.09 1.05 3.09l1 8.25-2.7-.39a54.133 54.133 0 01.66-10.99l-.01.04zm249.8 57.61l-10.72 1.38c1.51-4.44 3.38-11.72 2.29-18.31a9.183 9.183 0 002.94-7.65c6.37 7.61 5.77 21.05 5.49 24.55v.03zm-17.8-11.41a26.558 26.558 0 008.73-4.91c.92 6.47-1 13.58-2.46 17.8l-10 1.28-2.76-.53 6.49-13.64z" fill="url(#paint0_linear)"/><path d="M717 184.1l-26.09 10.89L660.6 89.3l7.11-8.44 13.03-2.02L717 184.1z" fill="#0984E3"/><path opacity=".2" d="M717 184.1l-26.09 10.89L660.6 89.3l7.11-8.44 13.03-2.02L717 184.1z" fill="#fff"/><path d="M667.71 80.86l-45.28 5.81 23.21 111.84 45.27-3.52-23.2-114.13z" fill="#0984E3"/><path opacity=".07" d="M667.71 80.86l-45.28 5.81 23.21 111.84 45.27-3.52-23.2-114.13z" fill="#fff"/><path d="M655.94 83.38l-.72-.09c0-.27 3-26.67-13.57-30l.14-.71c17.28 3.47 14.21 30.53 14.15 30.8z" fill="#535461"/><path d="M538.32 160.44h-49.88v73.01h49.88v-73.01z" fill="#774E55"/><path opacity=".2" d="M538.32 160.44h-49.88v73.01h49.88v-73.01z" fill="#000"/><path d="M669.51 202.72l-28.19 2.17 4.34-109.87 9.39-5.78 13.01 2.17 1.45 111.31z" fill="#0984E3"/><path opacity=".2" d="M669.51 202.72l-28.19 2.17 4.34-109.87 9.39-5.78 13.01 2.17 1.45 111.31z" fill="#000"/><path d="M655.05 89.24l-44.81-8.68-13.01 113.49 44.09 10.84 13.73-115.65zM391.22 35.03h-6.51L371.7 148.51l28.91-1.44-9.39-112.04z" fill="#0984E3"/><path opacity=".2" d="M391.22 35.03h-6.51L371.7 148.51l28.91-1.44-9.39-112.04z" fill="#000"/><path d="M389.05 33.58l-7.95 114.21 69.39 7.23 7.95-111.32-69.39-10.12z" fill="#0984E3"/><path d="M472.9 626.31s-8.67-.72-10.12 24.58c0 0 1.45 13.73-2.17 20.24-3.62 6.51-1.45 25.3 9.4 27.47a57.946 57.946 0 0021 0s5.06 0 1.45-18.07l-7.23-52.77-12.33-1.45z" fill="#5C3D53"/><path opacity=".05" d="M472.9 626.31s-8.67-.72-10.12 24.58c0 0 1.45 13.73-2.17 20.24-3.62 6.51-1.45 25.3 9.4 27.47a57.946 57.946 0 0021 0s5.06 0 1.45-18.07l-7.23-52.77-12.33-1.45z" fill="#000"/><path d="M518.35 208.9c-.62 10.76 1.53 17 1.53 17l-18.79 5.06s-31.08 4.34-18.79-8c4.25-4.25 6.34-11.54 7.25-19.24.569-5.26.747-10.554.53-15.84a141.301 141.301 0 00-1.28-14.8s45.54-15.9 35.42 10.12a92.528 92.528 0 00-4.35 14.5 76.546 76.546 0 00-1.52 11.2z" fill="#F8BDC5"/><path opacity=".1" d="M524.22 183.21a92.528 92.528 0 00-4.35 14.5 31.148 31.148 0 01-16.222-.885 31.147 31.147 0 01-13.568-8.935 141.301 141.301 0 00-1.28-14.8s45.54-15.9 35.42 10.12z" fill="#000"/><path d="M513.38 196.94c17.165 0 31.08-13.915 31.08-31.08s-13.915-31.08-31.08-31.08-31.08 13.915-31.08 31.08 13.915 31.08 31.08 31.08zM458.44 181.04v9.4l-15.9 41.2-4.34-4.34a7.33 7.33 0 01-.66-.82c-10.5-14.92-18.14-114.11-18.14-114.11L409.29 28.5s-10.84-26 13-24.58c23.84 1.42 5.06 23.85 5.06 23.85s15.9 79.51 13.73 82.4c-2.17 2.89 0 11.57 0 11.57s6.51 16.63 5.78 28.91c-.73 12.28 11.58 30.39 11.58 30.39zM637.7 71.17l-37.59 79.51-5.78 10.82s-18 63.52-38.79 78.73a18.997 18.997 0 01-3.86 2.23l-4.34-34.7 4-10.08.3-.77a48.552 48.552 0 0010.84-15.9c4.34-10.12 16.63-30.36 16.63-30.36s2.17-5.78 2.17-10.12c0-4.34 41.2-75.9 41.2-75.9s3.61-32.53 21-16.63c17.39 15.9-5.78 23.17-5.78 23.17zM492.41 647.99s-24.58 10.12-21.69.72c1.76-5.7 1.11-16.47.33-24-.5-4.91-1.06-8.49-1.06-8.49l21 2.17a17.014 17.014 0 00-1.21 5.75c-.69 9.59 2.63 23.85 2.63 23.85zM530.63 619.87c-3.79 13.16-2.8 36.08-2.8 36.08s-22.41 2.89-20.24-2.89c1.51-4 3.72-23.82 4.92-35.47.53-5.09.86-8.62.86-8.62l20.24 4.34a20.238 20.238 0 00-2.98 6.56z" fill="#F8BDC5"/><path opacity=".1" d="M470 616.19l21 2.17a17.014 17.014 0 00-1.21 5.75 21.423 21.423 0 01-18.7.57c-.53-4.92-1.09-8.49-1.09-8.49zM533.62 613.3a20.233 20.233 0 00-3 6.57c-6.83 1.1-14-.83-18.11-2.28.53-5.09.86-8.62.86-8.62l20.25 4.33z" fill="#000"/><path d="M556.75 444.87l-4.26 29.86a215.945 215.945 0 01-7.86 33.43c-3.06 9.85-.89 22-.89 22s2.89 46.26-2.17 57.83c-5.06 11.57-4.34 28.19-4.34 28.19-11.57 6.51-28.19-1.45-28.19-1.45l-1.45-76.62s-3.61-20.24-2.17-39-2.17-57.1-2.17-57.1c-8 2.17-7.23 107.7-7.23 107.7v68.67c-17.35 15.18-32.53 0-32.53 0-5.78-17.35-3.61-70.12-3.61-70.12l-2.17-31.08s-8-38.31-13-91.8a254.974 254.974 0 01-.62-45.23c.14-1.64.293-3.217.46-4.73a126.224 126.224 0 013.74-20.25 45.605 45.605 0 012.2-6.41l77.67 3.61 4.58.21 11 .51c1.2 1.81 2.33 3.65 3.38 5.49 1.52 2.67 2.89 5.36 4.11 8 .7 1.54 1.36 3.09 2 4.63 14.77 37.29 3.52 73.66 3.52 73.66z" fill="#5E52AD"/><path opacity=".1" d="M471.45 355.97s-3.4 34-27.37 24.16c.14-1.64.293-3.217.46-4.73 5.64 1.53 21.25 3.64 21.84-19.44l5.07.01zM553.19 371.22c-16.6 5.93-22.86-9.86-25-18.87l4.58.21c2.49 14.17 12.43 15 18.48 14 .68 1.58 1.33 3.13 1.94 4.66z" fill="#000"/><path d="M479.34 644.15c-3.69-.58-9.33-2.61-7.56-9.7 0 0-6.83-2.36-6.11 25.83 0 0-.72 13.73-2.17 16.63-1.45 2.9 0 20.24 15.18 18.79 0 0 10.84 3.61 13.73-2.17 0 0-2.17-33.25 1.45-39s-1.45-11.57-1.45-11.57-5.12 2.84-8.8 2c-1.4-.39-2.84-.58-4.27-.81zM497.47 691.36s-7.23 12.29 9.4 13.73c16.63 1.44 23.85-7.23 23.85-7.23s2.17-3.61 0-10.12.72-18.07.72-18.07 2.17-13.73-2.89-10.84c-5.06 2.89-31.08 32.53-31.08 32.53z" fill="#5C3D53"/><path opacity=".05" d="M497.47 691.36s-7.23 12.29 9.4 13.73c16.63 1.44 23.85-7.23 23.85-7.23s2.17-3.61 0-10.12.72-18.07.72-18.07 2.17-13.73-2.89-10.84c-5.06 2.89-31.08 32.53-31.08 32.53z" fill="#000"/><path d="M516.27 647.27s-8.67-3.61-10.84 3.61-.72 25.3-5.06 30.36c-4.34 5.06-10.12 18.79 7.23 18.07 17.35-.72 21-6.51 21-6.51s-.72-18.07 1.45-23.13c2.17-5.06 0-13 0-13s.67-10.17-13.78-9.4z" fill="#5C3D53"/><path opacity=".2" d="M407.84 45.15a1.45 1.45 0 100-2.9 1.45 1.45 0 000 2.9zM438.2 48.76a1.45 1.45 0 100-2.9 1.45 1.45 0 000 2.9z" fill="#000"/><path d="M438.56 47.32h-.72c0-.31.51-30.8-17-33.61-3.45-.55-6.27.23-8.38 2.32-7.23 7.17-4.24 27.42-4.21 27.62l-.71.11c-.13-.85-3.07-20.82 4.42-28.24 2.28-2.27 5.32-3.12 9-2.53 18.12 2.9 17.61 34.02 17.6 34.33zM643.09 87.95l-.65-.31c.11-.24 11.25-24.37-3.47-32.78l.36-.63c15.29 8.74 3.88 33.47 3.76 33.72z" fill="#535461"/><path opacity=".1" d="M519.88 225.86l-18.79 5.06s-31.08 4.34-18.79-8c4.25-4.25 6.34-11.54 7.25-19.24 4.91 7.7 10.82 5.51 10.82 5.51l17.92-.35h.07c-.63 10.82 1.52 17.02 1.52 17.02zM555.55 240.25a18.997 18.997 0 01-3.86 2.23l-4.34-34.7 4-10.08 1-.77c9.03 2.57 4.37 35.81 3.2 43.32zM458.44 181.04v9.4l-15.9 41.2-4.34-4.34a7.33 7.33 0 01-.66-.82c1.88-21.48 20.9-45.44 20.9-45.44zM547.11 358.56c-10.11 2.53-62.89 14.93-78.55 3.19-6.18-4.63-13.46-6.33-20.27-6.6a45.605 45.605 0 012.2-6.41l77.67 3.61 4.58.21 11 .51c1.2 1.82 2.32 3.65 3.37 5.49z" fill="#000"/><path d="M411.1 10.09s10.84 18.07 18.07 0H411.1zM634.09 47.31s-4.34 21.69 13 11.57l-13-11.57z" fill="#F8BDC5"/><g opacity=".1" fill="#000"><path opacity=".1" d="M499.89 449.14c-.35-4.4-.61-7.15-.61-7.15-8 2.17-7.23 107.7-7.23 107.7v68.67c-5.08 4.44-10 6.28-14.35 6.67 5.22.46 11.44-1 18-6.67v-68.67s-.56-76.47 4.19-100.55z"/><path opacity=".1" d="M552.83 371.22c-.61-1.54-1.26-3.09-2-4.63a93.127 93.127 0 00-4.11-8c-1-1.84-2.18-3.67-3.38-5.49l-11-.51-4.58-.21-77.67-3.61-.07.16 74.13 3.45 4.58.21 11 .51c1.2 1.81 2.33 3.65 3.38 5.49 1.52 2.67 2.89 5.36 4.11 8 .7 1.54 1.36 3.09 2 4.63 14.78 37.3 3.56 73.65 3.56 73.65l-4.26 29.86a215.945 215.945 0 01-7.86 33.43c-3.06 9.85-.89 22-.89 22s2.89 46.26-2.17 57.83c-5.06 11.57-4.34 28.19-4.34 28.19a20.999 20.999 0 01-9.06 2.5 23.001 23.001 0 0012.67-2.5s-.72-16.63 4.34-28.19c5.06-11.56 2.17-57.83 2.17-57.83s-2.17-12.16.89-22a215.945 215.945 0 007.86-33.43l4.26-29.86s11.22-36.37-3.56-73.65z"/></g><path d="M518.29 210.32c10 4.71 33.4-13.38 33.4-13.38 10.12 2.89 2.89 44.82 2.89 44.82l-.39 1.74c-2.2 9.89-3.53 19.94-4.76 30-.93 7.59-7.86 14.53-7.86 14.53-12.29 23.13 7.23 68.67 7.23 68.67s-62.89 16.63-80.23 3.61c-17.34-13.02-43.37-2.89-43.37-2.89 12.29-10.84 13-78.07 13-78.07v-52c1.45-21.69 21-46.26 21-46.26 8 22.41 30.23 23.89 30.23 23.89 4.93 8 11 5.75 11 5.75l17.86-.41z" fill="#EB6475"/><path opacity=".1" d="M505.29 122.06a17.735 17.735 0 00-7.53 0c-7.86 2.17-10.33 12.08-16.4 17.52-2.18 2-4.87 3.34-6.85 5.51-3.52 3.86-4.23 9.58-3.48 14.75.75 5.17 2.75 10.07 4 15.14a52.398 52.398 0 011.39 15.52 9.128 9.128 0 01-1.34 4.91c-1.45 2-4.12 2.63-6 4.23-5.74 4.94-1 15.19-5.21 21.5-1.81 2.73-5.2 4.53-5.89 7.73-.49 2.27.55 4.56 1.57 6.65 2.68 5.5 5.46 11.15 10 15.25s10.15 6.16 15.73 8.25c1.69.63 3.81 1.18 5.1-.07 1.59-1.56.39-4.2-.71-6.13-1.74-3-3.1-6.62-2.08-10s4.29-5.62 6.49-8.44c5.67-7.3 3.81-17.78 1-26.58-1.19-3.71-2.53-7.66-1.52-11.43.43-1.62 1.28-3.09 1.82-4.68 2.4-7.08-1.63-14.85-.45-22.23a31.933 31.933 0 013-8.27l6.35-13.65a13.5 13.5 0 012.81-4.42 9.997 9.997 0 017-2.18 19.006 19.006 0 0113.63 6.21c6.8 7.56 6.37 19 5.55 29.08l-.59 7.28c-.43 5.24-1 10.83-4.3 14.91-2.57 3.16-6.72 5.31-7.78 9.25-.92 3.39.81 7.07-.1 10.46-1.36 5.07-7.62 6.9-10.93 11a11.25 11.25 0 00-.82 12.65c1.26 2 3.27 4 3 6.35-.23 1.89-1.93 3.42-1.92 5.32a4.227 4.227 0 003.07 3.67c1.655.429 3.381.51 5.07.24l17.93-1.62a6.305 6.305 0 003.19-.88c1.25-.9 1.66-2.56 1.83-4.09.72-6.38-1-13.35 2.19-18.93 1-1.79 2.47-3.28 3.58-5 6.12-9.6-.05-22.62 3.28-33.51 1.58-5.17 5.26-9.61 6.24-14.92 1.3-7.08-2.39-14-3.82-21-1.47-7.23-.68-15.19-4.54-21.48-2.95-4.8-8.23-7.79-13.69-9.16-5-1.26-10-.81-15-1.35-4.78-.55-9.22-2.61-13.87-3.36z" fill="#000"/><path d="M505.29 120.61a17.735 17.735 0 00-7.53 0c-7.86 2.17-10.33 12.08-16.4 17.52-2.18 2-4.87 3.34-6.85 5.51-3.52 3.86-4.23 9.58-3.48 14.75.75 5.17 2.75 10.07 4 15.14a52.398 52.398 0 011.39 15.52 9.128 9.128 0 01-1.34 4.91c-1.45 2-4.12 2.63-6 4.23-5.74 4.94-1 15.19-5.21 21.5-1.81 2.73-5.2 4.53-5.89 7.73-.49 2.27.55 4.56 1.57 6.65 2.68 5.5 5.46 11.15 10 15.25s10.15 6.16 15.73 8.25c1.69.63 3.81 1.18 5.1-.07 1.59-1.56.39-4.2-.71-6.13-1.74-3-3.1-6.62-2.08-10s4.29-5.62 6.49-8.44c5.67-7.3 3.81-17.78 1-26.58-1.19-3.71-2.53-7.66-1.52-11.43.43-1.62 1.28-3.09 1.82-4.68 2.4-7.08-1.63-14.85-.45-22.23a31.933 31.933 0 013-8.27l6.35-13.65a13.5 13.5 0 012.81-4.42 9.997 9.997 0 017-2.18 19.006 19.006 0 0113.63 6.21c6.8 7.56 6.37 19 5.55 29.08l-.59 7.28c-.43 5.24-1 10.83-4.3 14.91-2.57 3.16-6.72 5.31-7.78 9.25-.92 3.39.81 7.07-.1 10.46-1.36 5.07-7.62 6.9-10.93 11a11.25 11.25 0 00-.82 12.65c1.26 2 3.27 4 3 6.35-.23 1.89-1.93 3.42-1.92 5.32a4.227 4.227 0 003.07 3.67c1.655.429 3.381.51 5.07.24l17.93-1.62a6.305 6.305 0 003.19-.88c1.25-.9 1.66-2.56 1.83-4.09.72-6.38-1-13.35 2.19-18.93 1-1.79 2.47-3.28 3.58-5 6.12-9.6-.05-22.62 3.28-33.51 1.58-5.17 5.26-9.61 6.24-14.92 1.3-7.08-2.39-14-3.82-21-1.47-7.23-.68-15.19-4.54-21.48-2.95-4.8-8.23-7.79-13.69-9.16-5-1.26-10-.81-15-1.35-4.78-.54-9.22-2.6-13.87-3.36z" fill="#774E55"/><path opacity=".1" d="M466.75 286.21s14.46 4.34 35.42-5.06H513s.72 10.12 28.91 5.78" fill="#000"/><path opacity=".1" d="M326.83 258h-69.66a5.17 5.17 0 00-5.17 5.17v19.66a5.17 5.17 0 005.17 5.17h69.66a5.17 5.17 0 005.17-5.17v-19.66a5.17 5.17 0 00-5.17-5.17zM362.83 291h-69.66a5.17 5.17 0 00-5.17 5.17v19.66a5.17 5.17 0 005.17 5.17h69.66a5.17 5.17 0 005.17-5.17v-19.66a5.17 5.17 0 00-5.17-5.17zM677.83 260h-69.66a5.17 5.17 0 00-5.17 5.17v19.66a5.17 5.17 0 005.17 5.17h69.66a5.17 5.17 0 005.17-5.17v-19.66a5.17 5.17 0 00-5.17-5.17zM713.83 293h-69.66a5.17 5.17 0 00-5.17 5.17v19.66a5.17 5.17 0 005.17 5.17h69.66a5.17 5.17 0 005.17-5.17v-19.66a5.17 5.17 0 00-5.17-5.17zM301.83 324h-69.66a5.17 5.17 0 00-5.17 5.17v19.66a5.17 5.17 0 005.17 5.17h69.66a5.17 5.17 0 005.17-5.17v-19.66a5.17 5.17 0 00-5.17-5.17zM381.83 441h-69.66a5.17 5.17 0 00-5.17 5.17v19.66a5.17 5.17 0 005.17 5.17h69.66a5.17 5.17 0 005.17-5.17v-19.66a5.17 5.17 0 00-5.17-5.17zM417.83 474h-69.66a5.17 5.17 0 00-5.17 5.17v19.66a5.17 5.17 0 005.17 5.17h69.66a5.17 5.17 0 005.17-5.17v-19.66a5.17 5.17 0 00-5.17-5.17zM356.83 507h-69.66a5.17 5.17 0 00-5.17 5.17v19.66a5.17 5.17 0 005.17 5.17h69.66a5.17 5.17 0 005.17-5.17v-19.66a5.17 5.17 0 00-5.17-5.17zM703.83 525h-69.66a5.17 5.17 0 00-5.17 5.17v19.66a5.17 5.17 0 005.17 5.17h69.66a5.17 5.17 0 005.17-5.17v-19.66a5.17 5.17 0 00-5.17-5.17zM642.83 558h-69.66a5.17 5.17 0 00-5.17 5.17v19.66a5.17 5.17 0 005.17 5.17h69.66a5.17 5.17 0 005.17-5.17v-19.66a5.17 5.17 0 00-5.17-5.17z" fill="#0984E3"/><g opacity=".1"><path opacity=".1" d="M945.26 663.39s-14.48-73.36 15.34-123.64a113.298 113.298 0 0015.63-69.94 190.604 190.604 0 00-7-34.14" stroke="#535461" stroke-width="2" stroke-miterlimit="10"/><path opacity=".1" d="M987.85 403.87c-.8 8.75-19 32.68-19 32.68s-13.52-26.84-12.71-35.6a15.923 15.923 0 0117.275-14.073 15.918 15.918 0 0114.425 16.983l.01.01zM1009.6 454.77c-5.43 6.91-33.7 17.12-33.7 17.12s3.24-29.88 8.67-36.79a15.902 15.902 0 014.688-4.327 15.896 15.896 0 016.01-2.14c2.127-.3 4.293-.167 6.372.392 2.07.559 4.01 1.532 5.7 2.86a15.868 15.868 0 014.12 4.87 15.963 15.963 0 011.88 6.096c.21 2.138-.02 4.296-.67 6.345a15.796 15.796 0 01-3.1 5.574h.03zM1000.84 537.5c-8.18 3.22-37.73-2.24-37.73-2.24s17.88-24.16 26.06-27.38a15.908 15.908 0 0112.06.353 15.909 15.909 0 018.35 8.713 15.91 15.91 0 01-.16 12.068 15.91 15.91 0 01-8.58 8.486zM980.11 598.65c-7.52 4.56-37.57 4.17-37.57 4.17s13.54-26.83 21.06-31.39a15.91 15.91 0 0112.139-2.02 15.906 15.906 0 019.953 7.237 15.91 15.91 0 011.819 12.171 15.905 15.905 0 01-7.401 9.832zM942.46 470.5c5.72 6.68 34.39 15.68 34.39 15.68s-4.5-29.72-10.21-36.39a15.91 15.91 0 00-10.898-5.682 15.924 15.924 0 00-17.222 14.75 15.94 15.94 0 00.801 6.217 15.945 15.945 0 003.139 5.425zM919.12 542.32c7.45 4.66 37.51 4.67 37.51 4.67s-13.18-27-20.64-31.67a15.908 15.908 0 00-12.095-2.151 15.91 15.91 0 00-10.025 7.1 15.915 15.915 0 00.636 17.813 15.902 15.902 0 004.614 4.238zM906 615.21c6.56 5.85 36.18 10.95 36.18 10.95s-8.43-28.85-15-34.7a15.919 15.919 0 00-25.145 18.8 15.918 15.918 0 003.965 4.95z" fill="#0984E3"/></g><g opacity=".1"><path opacity=".1" d="M819.63 647.29s-7.77-39.39 8.23-66.39a60.843 60.843 0 008.39-37.56 102.28 102.28 0 00-3.74-18.33" stroke="#535461" stroke-width="2" stroke-miterlimit="10"/><path opacity=".1" d="M842.5 507.93c-.43 4.7-10.2 17.55-10.2 17.55s-7.26-14.41-6.83-19.11a8.55 8.55 0 0117 1.56h.03zM854.17 535.26c-2.92 3.71-18.1 9.19-18.1 9.19s1.74-16 4.66-19.75a8.55 8.55 0 0113.44 10.56zM849.47 579.7c-4.39 1.73-20.26-1.2-20.26-1.2s9.6-13 14-14.7a8.553 8.553 0 0110.84 4.912 8.547 8.547 0 01-4.57 10.988h-.01zM838.34 612.5c-4 2.45-20.17 2.24-20.17 2.24s7.27-14.41 11.31-16.86a8.55 8.55 0 118.86 14.62zM818.12 543.72c3.07 3.59 18.47 8.42 18.47 8.42s-2.41-16-5.48-19.54a8.554 8.554 0 00-13 11.12h.01zM805.59 582.27c4 2.5 20.14 2.51 20.14 2.51s-7.08-14.5-11.08-17a8.553 8.553 0 00-11.664 2.793 8.548 8.548 0 002.604 11.707v-.01zM798.56 621.41c3.52 3.14 19.43 5.88 19.43 5.88s-4.52-15.49-8-18.63a8.551 8.551 0 00-14.119 6.893 8.547 8.547 0 002.739 5.867l-.05-.01z" fill="#0984E3"/></g><g opacity=".1"><path opacity=".1" d="M186.63 653.29s-7.77-39.39 8.23-66.39a60.843 60.843 0 008.39-37.56 102.28 102.28 0 00-3.74-18.33" stroke="#535461" stroke-width="2" stroke-miterlimit="10"/><path opacity=".1" d="M209.5 513.93c-.43 4.7-10.2 17.55-10.2 17.55s-7.26-14.41-6.83-19.11a8.55 8.55 0 0117 1.56h.03zM221.17 541.26c-2.92 3.71-18.1 9.19-18.1 9.19s1.74-16 4.66-19.75a8.55 8.55 0 0113.44 10.56zM216.47 585.7c-4.39 1.73-20.26-1.2-20.26-1.2s9.6-13 14-14.7a8.553 8.553 0 0110.84 4.912 8.547 8.547 0 01-4.57 10.988h-.01zM205.34 618.5c-4 2.45-20.17 2.24-20.17 2.24s7.27-14.41 11.31-16.86a8.55 8.55 0 118.86 14.62zM185.12 549.72c3.07 3.59 18.47 8.42 18.47 8.42s-2.41-16-5.48-19.54a8.554 8.554 0 00-13 11.12h.01zM172.59 588.27c4 2.5 20.14 2.51 20.14 2.51s-7.08-14.5-11.08-17a8.553 8.553 0 00-11.664 2.793 8.548 8.548 0 002.604 11.707v-.01zM165.56 627.41c3.52 3.14 19.43 5.88 19.43 5.88s-4.52-15.49-8-18.63a8.551 8.551 0 00-14.119 6.893 8.547 8.547 0 002.739 5.867l-.05-.01z" fill="#0984E3"/></g><path d="M657.359 371.648c-6.432-1.849-11.119-4.114-14.062-6.796-2.917-2.709-4.375-6.042-4.375-10 0-4.48 1.784-8.178 5.351-11.094 3.594-2.943 8.256-4.414 13.985-4.414 3.906 0 7.383.755 10.43 2.265 3.072 1.511 5.442 3.594 7.109 6.25 1.693 2.657 2.539 5.56 2.539 8.711h-7.539c0-3.437-1.094-6.132-3.281-8.086-2.188-1.979-5.274-2.968-9.258-2.968-3.698 0-6.589.82-8.672 2.461-2.057 1.614-3.086 3.867-3.086 6.757 0 2.318.977 4.284 2.93 5.899 1.979 1.588 5.325 3.047 10.039 4.375 4.739 1.328 8.437 2.799 11.093 4.414 2.683 1.588 4.662 3.45 5.938 5.586 1.302 2.135 1.953 4.648 1.953 7.539 0 4.609-1.797 8.307-5.391 11.094-3.593 2.76-8.398 4.14-14.414 4.14-3.906 0-7.552-.742-10.937-2.226-3.385-1.511-6.003-3.568-7.852-6.172-1.823-2.604-2.734-5.56-2.734-8.867h7.539c0 3.437 1.263 6.158 3.789 8.164 2.552 1.979 5.951 2.968 10.195 2.968 3.959 0 6.993-.807 9.102-2.421 2.109-1.615 3.164-3.816 3.164-6.602 0-2.786-.976-4.935-2.93-6.445-1.953-1.537-5.494-3.047-10.625-4.532zm55.703 21.172c-2.812 3.308-6.94 4.961-12.382 4.961-4.506 0-7.943-1.302-10.313-3.906-2.344-2.63-3.528-6.51-3.555-11.641v-27.5h7.227v27.305c0 6.406 2.604 9.609 7.813 9.609 5.52 0 9.192-2.057 11.015-6.171v-30.743h7.227V397h-6.875l-.157-4.18zm35-.937c2.579 0 4.831-.781 6.758-2.344 1.927-1.562 2.995-3.516 3.203-5.859h6.836c-.13 2.422-.963 4.726-2.5 6.914-1.536 2.187-3.593 3.932-6.171 5.234a17.64 17.64 0 01-8.126 1.953c-5.755 0-10.338-1.914-13.75-5.742-3.385-3.854-5.078-9.115-5.078-15.781v-1.211c0-4.115.756-7.774 2.266-10.977 1.51-3.203 3.672-5.69 6.484-7.461 2.839-1.77 6.185-2.656 10.039-2.656 4.74 0 8.672 1.419 11.797 4.258 3.151 2.838 4.831 6.523 5.039 11.055h-6.836c-.208-2.735-1.25-4.974-3.125-6.719-1.849-1.771-4.14-2.656-6.875-2.656-3.671 0-6.523 1.328-8.554 3.984-2.005 2.63-3.008 6.445-3.008 11.445v1.368c0 4.869 1.003 8.619 3.008 11.25 2.005 2.63 4.87 3.945 8.593 3.945zm41.876 0c2.578 0 4.83-.781 6.757-2.344 1.927-1.562 2.995-3.516 3.203-5.859h6.836c-.13 2.422-.963 4.726-2.5 6.914-1.536 2.187-3.593 3.932-6.172 5.234a17.632 17.632 0 01-8.124 1.953c-5.756 0-10.339-1.914-13.75-5.742-3.386-3.854-5.079-9.115-5.079-15.781v-1.211c0-4.115.756-7.774 2.266-10.977 1.51-3.203 3.672-5.69 6.484-7.461 2.839-1.77 6.185-2.656 10.039-2.656 4.74 0 8.672 1.419 11.797 4.258 3.151 2.838 4.831 6.523 5.039 11.055h-6.836c-.208-2.735-1.25-4.974-3.125-6.719-1.849-1.771-4.14-2.656-6.875-2.656-3.671 0-6.523 1.328-8.554 3.984-2.005 2.63-3.008 6.445-3.008 11.445v1.368c0 4.869 1.003 8.619 3.008 11.25 2.005 2.63 4.87 3.945 8.594 3.945zm42.46 5.898c-5.729 0-10.39-1.875-13.984-5.625-3.594-3.776-5.391-8.815-5.391-15.117v-1.328c0-4.193.795-7.93 2.383-11.211 1.615-3.307 3.854-5.885 6.719-7.734 2.891-1.875 6.016-2.813 9.375-2.813 5.495 0 9.766 1.81 12.812 5.43 3.047 3.62 4.571 8.802 4.571 15.547v3.008H820.25c.104 4.166 1.315 7.539 3.633 10.117 2.344 2.552 5.312 3.828 8.906 3.828 2.552 0 4.714-.521 6.484-1.563 1.771-1.041 3.321-2.422 4.649-4.14l4.414 3.437c-3.542 5.443-8.854 8.164-15.938 8.164zm-.898-37.89c-2.917 0-5.365 1.067-7.344 3.203-1.979 2.109-3.203 5.078-3.672 8.906h21.172v-.547c-.208-3.672-1.198-6.51-2.968-8.515-1.771-2.032-4.167-3.047-7.188-3.047zm50.391 25.898c0-1.953-.743-3.463-2.227-4.531-1.458-1.094-4.023-2.031-7.695-2.813-3.646-.781-6.55-1.718-8.711-2.812-2.136-1.094-3.724-2.396-4.766-3.906-1.015-1.511-1.523-3.308-1.523-5.391 0-3.464 1.458-6.393 4.375-8.789 2.942-2.396 6.692-3.594 11.25-3.594 4.791 0 8.672 1.237 11.64 3.711 2.995 2.474 4.493 5.638 4.493 9.492h-7.266c0-1.979-.846-3.685-2.539-5.117-1.667-1.432-3.776-2.148-6.328-2.148-2.63 0-4.688.573-6.172 1.718-1.484 1.146-2.227 2.644-2.227 4.493 0 1.744.69 3.059 2.071 3.945 1.38.885 3.867 1.732 7.461 2.539 3.619.807 6.549 1.771 8.789 2.891 2.239 1.119 3.893 2.474 4.961 4.062 1.093 1.563 1.64 3.477 1.64 5.742 0 3.776-1.51 6.81-4.531 9.102-3.021 2.265-6.94 3.398-11.758 3.398-3.385 0-6.38-.599-8.984-1.797s-4.649-2.864-6.133-5c-1.458-2.161-2.188-4.492-2.188-6.992h7.227c.13 2.422 1.094 4.349 2.891 5.781 1.823 1.407 4.218 2.11 7.187 2.11 2.734 0 4.922-.547 6.563-1.641 1.666-1.12 2.5-2.604 2.5-4.453zm41.25 0c0-1.953-.743-3.463-2.227-4.531-1.458-1.094-4.023-2.031-7.695-2.813-3.646-.781-6.55-1.718-8.711-2.812-2.136-1.094-3.724-2.396-4.766-3.906-1.015-1.511-1.523-3.308-1.523-5.391 0-3.464 1.458-6.393 4.375-8.789 2.942-2.396 6.692-3.594 11.25-3.594 4.791 0 8.672 1.237 11.64 3.711 2.995 2.474 4.493 5.638 4.493 9.492h-7.266c0-1.979-.846-3.685-2.539-5.117-1.667-1.432-3.776-2.148-6.328-2.148-2.63 0-4.688.573-6.172 1.718-1.484 1.146-2.227 2.644-2.227 4.493 0 1.744.69 3.059 2.071 3.945 1.38.885 3.867 1.732 7.461 2.539 3.619.807 6.549 1.771 8.789 2.891 2.239 1.119 3.893 2.474 4.961 4.062 1.093 1.563 1.64 3.477 1.64 5.742 0 3.776-1.51 6.81-4.531 9.102-3.021 2.265-6.94 3.398-11.758 3.398-3.385 0-6.38-.599-8.984-1.797s-4.649-2.864-6.133-5c-1.458-2.161-2.188-4.492-2.188-6.992H904c.13 2.422 1.094 4.349 2.891 5.781 1.823 1.407 4.218 2.11 7.187 2.11 2.734 0 4.922-.547 6.563-1.641 1.666-1.12 2.5-2.604 2.5-4.453zM943.336 397v-36.68h-6.68v-5.586h6.68v-4.336c0-4.531 1.211-8.033 3.633-10.507 2.422-2.474 5.846-3.711 10.273-3.711 1.667 0 3.32.221 4.961.664l-.391 5.859a20.779 20.779 0 00-3.906-.351c-2.344 0-4.153.69-5.429 2.07-1.276 1.354-1.915 3.307-1.915 5.859v4.453h9.024v5.586h-9.024V397h-7.226zm50.352-4.18c-2.813 3.308-6.941 4.961-12.383 4.961-4.506 0-7.943-1.302-10.313-3.906-2.344-2.63-3.528-6.51-3.554-11.641v-27.5h7.226v27.305c0 6.406 2.604 9.609 7.813 9.609 5.52 0 9.192-2.057 11.015-6.171v-30.743h7.228V397h-6.876l-.156-4.18zm25.902 4.18h-7.23v-60h7.23v60zM52.102 370.734V393h-7.5v-56.875h20.976c6.224 0 11.094 1.589 14.61 4.766 3.541 3.177 5.312 7.382 5.312 12.617 0 5.521-1.732 9.778-5.195 12.773-3.438 2.969-8.373 4.453-14.805 4.453H52.102zm0-6.132h13.476c4.01 0 7.084-.938 9.219-2.813 2.135-1.901 3.203-4.635 3.203-8.203 0-3.385-1.068-6.094-3.203-8.125-2.135-2.031-5.065-3.086-8.79-3.164H52.103v22.305zm67.929 24.218c-2.812 3.308-6.94 4.961-12.383 4.961-4.505 0-7.942-1.302-10.312-3.906-2.344-2.63-3.529-6.51-3.555-11.641v-27.5h7.227v27.305c0 6.406 2.604 9.609 7.812 9.609 5.521 0 9.193-2.057 11.016-6.171v-30.743h7.226V393h-6.874l-.157-4.18zm38.477-31.601a21.582 21.582 0 00-3.555-.274c-4.739 0-7.956 2.019-9.648 6.055v30h-7.227v-42.266h7.031l.118 4.883c2.369-3.776 5.729-5.664 10.078-5.664 1.406 0 2.474.182 3.203.547v6.719zm22.851 30.664c2.579 0 4.831-.781 6.758-2.344 1.927-1.562 2.995-3.516 3.203-5.859h6.836c-.13 2.422-.963 4.726-2.5 6.914-1.536 2.187-3.594 3.932-6.172 5.234a17.633 17.633 0 01-8.125 1.953c-5.755 0-10.338-1.914-13.75-5.742-3.385-3.854-5.078-9.115-5.078-15.781v-1.211c0-4.115.755-7.774 2.266-10.977 1.51-3.203 3.672-5.69 6.484-7.461 2.839-1.77 6.185-2.656 10.039-2.656 4.74 0 8.672 1.419 11.797 4.258 3.151 2.838 4.831 6.523 5.039 11.055h-6.836c-.208-2.735-1.25-4.974-3.125-6.719-1.849-1.771-4.14-2.656-6.875-2.656-3.672 0-6.523 1.328-8.554 3.984-2.006 2.63-3.008 6.445-3.008 11.445v1.368c0 4.869 1.002 8.619 3.008 11.25 2.005 2.63 4.869 3.945 8.593 3.945zm32.149-32.031c3.203-3.933 7.37-5.899 12.5-5.899 8.932 0 13.437 5.039 13.515 15.117V393h-7.226v-27.969c-.026-3.047-.729-5.299-2.109-6.758-1.355-1.458-3.477-2.187-6.368-2.187-2.343 0-4.401.625-6.172 1.875-1.77 1.25-3.151 2.891-4.14 4.922V393h-7.227v-60h7.227v22.852zM276.438 393c-.417-.833-.756-2.318-1.016-4.453-3.36 3.489-7.37 5.234-12.031 5.234-4.167 0-7.592-1.172-10.274-3.515-2.656-2.37-3.984-5.365-3.984-8.985 0-4.401 1.666-7.812 5-10.234 3.359-2.448 8.073-3.672 14.14-3.672h7.032v-3.32c0-2.526-.756-4.532-2.266-6.016-1.51-1.51-3.737-2.266-6.68-2.266-2.578 0-4.739.651-6.484 1.954-1.745 1.302-2.617 2.877-2.617 4.726h-7.266c0-2.109.742-4.141 2.227-6.094 1.51-1.979 3.541-3.541 6.093-4.687 2.579-1.146 5.404-1.719 8.477-1.719 4.87 0 8.685 1.224 11.445 3.672 2.761 2.422 4.193 5.768 4.297 10.039v19.453c0 3.88.495 6.966 1.485 9.258V393h-7.578zm-11.993-5.508c2.266 0 4.414-.586 6.446-1.758 2.031-1.172 3.502-2.695 4.414-4.57v-8.672h-5.664c-8.855 0-13.282 2.591-13.282 7.774 0 2.265.756 4.036 2.266 5.312 1.51 1.276 3.451 1.914 5.82 1.914zm54.024-5.703c0-1.953-.742-3.463-2.227-4.531-1.458-1.094-4.023-2.031-7.695-2.813-3.646-.781-6.55-1.718-8.711-2.812-2.135-1.094-3.724-2.396-4.766-3.906-1.015-1.511-1.523-3.308-1.523-5.391 0-3.464 1.458-6.393 4.375-8.789 2.943-2.396 6.693-3.594 11.25-3.594 4.792 0 8.672 1.237 11.64 3.711 2.995 2.474 4.493 5.638 4.493 9.492h-7.266c0-1.979-.846-3.685-2.539-5.117-1.667-1.432-3.776-2.148-6.328-2.148-2.63 0-4.688.573-6.172 1.718-1.484 1.146-2.227 2.644-2.227 4.493 0 1.744.691 3.059 2.071 3.945 1.38.885 3.867 1.732 7.461 2.539 3.619.807 6.549 1.771 8.789 2.891 2.239 1.119 3.893 2.474 4.961 4.062 1.093 1.563 1.64 3.477 1.64 5.742 0 3.776-1.51 6.81-4.531 9.102-3.021 2.265-6.94 3.398-11.758 3.398-3.385 0-6.38-.599-8.984-1.797s-4.649-2.864-6.133-5c-1.458-2.161-2.187-4.492-2.187-6.992h7.226c.13 2.422 1.094 4.349 2.891 5.781 1.823 1.407 4.219 2.11 7.187 2.11 2.735 0 4.922-.547 6.563-1.641 1.666-1.12 2.5-2.604 2.5-4.453zm34.179 11.992c-5.729 0-10.39-1.875-13.984-5.625-3.594-3.776-5.391-8.815-5.391-15.117v-1.328c0-4.193.795-7.93 2.383-11.211 1.615-3.307 3.854-5.885 6.719-7.734 2.891-1.875 6.016-2.813 9.375-2.813 5.495 0 9.766 1.81 12.812 5.43 3.047 3.62 4.571 8.802 4.571 15.547v3.008H340.5c.104 4.166 1.315 7.539 3.633 10.117 2.344 2.552 5.312 3.828 8.906 3.828 2.552 0 4.714-.521 6.484-1.563 1.771-1.041 3.321-2.422 4.649-4.14l4.414 3.437c-3.542 5.443-8.854 8.164-15.938 8.164zm-.898-37.89c-2.917 0-5.365 1.067-7.344 3.203-1.979 2.109-3.203 5.078-3.672 8.906h21.172v-.547c-.208-3.672-1.198-6.51-2.968-8.515-1.771-2.032-4.167-3.047-7.188-3.047z" fill="#0984E3"/></g><defs><linearGradient id="paint0_linear" x1="544.35" y1="709.14" x2="544.35" y2="0" gradientUnits="userSpaceOnUse"><stop stop-color="gray" stop-opacity=".25"/><stop offset=".54" stop-color="gray" stop-opacity=".12"/><stop offset="1" stop-color="gray" stop-opacity=".1"/></linearGradient><clipPath id="clip0"><path fill="#fff" d="M0 0h1074v739H0z"/></clipPath></defs></svg>