<svg width="832" height="691" fill="none" xmlns="http://www.w3.org/2000/svg"><g clip-path="url(#clip0)"><path d="M416 690.689c229.75 0 416-10.745 416-24 0-13.254-186.25-24-416-24s-416 10.746-416 24c0 13.255 186.25 24 416 24z" fill="#0984E3"/><path d="M654.124 232.333s-12.402-4.43-20.375 13.288c-7.973 17.717-20.375 37.206-20.375 37.206l7.087 1.772s1.772-12.402 6.201-14.174l-1.772 15.946s53.152 18.603 77.071-1.772l-.886-6.201s3.543.886 3.543 6.201l2.658-2.658s-2.658-5.315-10.63-12.402c-5.233-4.651-7.032-13.501-7.65-19.034a23.029 23.029 0 00-5.303-12.543c-5.298-6.141-14.952-12.667-29.569-5.629z" fill="#2F2E41"/><path d="M581.286 384.321l11.598 14.761 7.38-8.435-6.326-10.543-12.652 4.217zM577.069 610.998l-4.217 22.14 10.543 5.272 7.38-5.272v-22.14h-13.706zM650.87 610.998l4.218 22.14-10.543 5.272-7.381-5.272v-22.14h13.706z" fill="#FBBEBE"/><path d="M607.644 411.733l-14.76 105.431-21.087 95.942 25.304 3.163 20.032-89.616 25.303-75.91-3.163 90.67-5.271 74.856h18.977l13.706-101.213 15.156-75.251-.396-28.072h-73.801zM580.232 631.03s-5.272-6.326-8.435-3.163c-3.163 3.163-10.543 15.814-10.543 15.814s-16.869 9.489-3.163 11.598c13.706 2.108 17.924 0 17.924-1.055 0-1.054 2.108-4.217 2.108-4.217l5.272 1.054 7.38-2.108s3.163-19.426 0-18.675c-3.163.752-9.489 3.915-10.543.752zM647.708 631.03s5.271-6.326 8.434-3.163c3.163 3.163 10.543 15.814 10.543 15.814s16.869 9.489 3.163 11.598c-13.706 2.108-17.923 0-17.923-1.055 0-1.054-2.109-4.217-2.109-4.217l-5.271 1.054-7.381-2.108s-3.162-19.426 0-18.675c3.163.752 9.489 3.915 10.544.752z" fill="#2F2E41"/><path d="M657.724 286.798c11.645 0 21.086-9.441 21.086-21.086 0-11.646-9.441-21.087-21.086-21.087-11.646 0-21.087 9.441-21.087 21.087 0 11.645 9.441 21.086 21.087 21.086z" fill="#FBBEBE"/><path d="M671.957 278.89s-2.109 17.924-1.055 22.141c1.055 4.217 3.163 10.543 3.163 10.543l-33.738-6.326s9.489-20.032 7.381-23.195c-2.109-3.163 24.249-3.163 24.249-3.163z" fill="#FBBEBE"/><path d="M675.12 304.194l-34.793-7.38-20.031 122.3a45.671 45.671 0 0127.412 1.054c14.76 5.271 34.792 0 34.792 0l-4.217-114.92-3.163-1.054z" fill="#0984E3"/><path d="M647.414 287.127l-12.358 6.524-15.815 3.163-16.869 40.063 2.109 28.467s-17.923 32.683-20.032 50.607c0 0 2.109 27.412 36.901 26.357l23.195-64.313s9.488-48.498 0-62.204c0 0 6.792-25.698 2.869-28.664z" fill="#2F2E41"/><path d="M625.567 296.814l-3.414-.583-2.912.583s-7.38 1.054-15.814 8.434c-8.435 7.38-36.901 30.575-39.01 36.901-2.109 6.326-1.054 16.869 2.109 23.195 3.163 6.326 9.489 14.76 9.489 14.76l3.162 7.38 17.924-5.271s-11.598-22.141-10.543-31.63l21.086-16.868 17.923-36.901zM670.789 291.894l15.928 19.68 8.434 10.543-10.543 35.847-5.271 30.575s12.651 48.498 2.108 63.258c0 0-6.325 7.38-8.434-1.054-2.109-8.435-2.109-48.498-2.109-48.498s-8.434-52.716-4.217-66.422c4.217-13.706-.226-41.469 4.104-43.929z" fill="#2F2E41"/><path d="M685.663 444.417v10.543s-2.109 34.792 8.434 30.575c10.543-4.217 3.163-30.575 3.163-30.575l-1.054-11.597-10.543 1.054z" fill="#FBBEBE"/><path d="M634.218 266.836c8.019-5.804 14.51-12.488 18.804-20.439 0 0 14.716 16.351 23.71 17.169 8.993.817.817-19.622.817-19.622l-16.351-4.088-15.534 1.635-12.263 8.176.817 17.169zM686.717 318.954l8.434 3.163 1.055 10.543 4.217 64.313-2.109 48.498-15.814 1.055-5.272-53.77-2.108-59.041 11.597-14.761z" fill="#2F2E41"/><path d="M430 158.43h-3.663V58.08a58.076 58.076 0 00-35.854-53.659A58.08 58.08 0 00368.257 0H155.651a58.08 58.08 0 00-58.08 58.08V608.61a58.086 58.086 0 0017.011 41.069 58.076 58.076 0 0041.069 17.011h212.606a58.077 58.077 0 0053.659-35.853 58.078 58.078 0 004.421-22.227V229.861H430V158.43z" fill="#3F3D56"/><path d="M413.975 58.485v549.72a43.376 43.376 0 01-43.376 43.375H156.974a43.376 43.376 0 01-43.376-43.375V58.485a43.378 43.378 0 0143.376-43.375h25.915a20.625 20.625 0 001.986 19.273 20.611 20.611 0 0017.096 9.116H323.77a20.618 20.618 0 0019.082-28.39h27.747a43.376 43.376 0 0143.376 43.376z" fill="#fff"/><path d="M212.286 474.693h-4.493l1.498-87.756h1.497l1.498 87.756z" fill="#0984E3"/><path d="M216.029 331.687l7.252-11.208a167.847 167.847 0 00-7.44-17.416l-4.689 3.788 3.713-5.739c-3.539-6.965-6.323-11.354-6.323-11.354s-14.544 22.919-19.403 47.185l9.306 14.382-10.302-8.321a67.877 67.877 0 00-.565 8.524c0 28.739 9.386 52.036 20.964 52.036s20.964-23.297 20.964-52.036c0-8.909-2.015-18.23-4.796-26.853l-8.681 7.012zM329.245 474.693h-4.493l1.498-87.756h1.497l1.498 87.756z" fill="#0984E3"/><path d="M332.988 331.687l7.252-11.208a167.847 167.847 0 00-7.44-17.416l-4.689 3.788 3.713-5.739c-3.539-6.965-6.323-11.354-6.323-11.354s-14.544 22.919-19.403 47.185l9.306 14.382-10.302-8.321a67.877 67.877 0 00-.565 8.524c0 28.739 9.386 52.036 20.964 52.036s20.964-23.297 20.964-52.036c0-8.909-2.015-18.23-4.796-26.853l-8.681 7.012z" fill="#0984E3"/><path d="M208.867 183.797c22.798 0 41.279-18.481 41.279-41.279 0-22.798-18.481-41.28-41.279-41.28-22.798 0-41.28 18.482-41.28 41.28 0 22.798 18.482 41.279 41.28 41.279z" fill="#E6E6E6"/><path d="M266.043 461.916h-9.263l3.088-180.945h3.087l3.088 180.945z" fill="#0984E3"/><path d="M273.762 167.051l14.953-23.109a346.6 346.6 0 00-15.341-35.911l-9.669 7.81 7.656-11.832c-7.296-14.362-13.037-23.41-13.037-23.41s-29.988 47.256-40.007 97.29l19.188 29.654-21.242-17.157a139.96 139.96 0 00-1.165 17.576c0 59.256 19.353 107.294 43.226 107.294 23.873 0 43.226-48.038 43.226-107.294 0-18.371-4.156-37.59-9.889-55.368l-17.899 14.457z" fill="#0984E3"/><path d="M420.206 487.997v123.009a45.173 45.173 0 01-45.175 45.175H152.542a45.173 45.173 0 01-45.175-45.175V499.99a212.728 212.728 0 01312.839-11.993z" fill="#3F3D56"/><path opacity=".2" d="M264.02 609.338c34.909 0 63.208-28.299 63.208-63.208s-28.299-63.208-63.208-63.208-63.208 28.299-63.208 63.208 28.299 63.208 63.208 63.208z" fill="#0984E3"/><path d="M264.02 597.025c28.108 0 50.895-22.786 50.895-50.895 0-28.108-22.787-50.895-50.895-50.895-28.109 0-50.895 22.787-50.895 50.895 0 28.109 22.786 50.895 50.895 50.895z" fill="#0984E3"/><path d="M258.084 567.89l-17.937-23.061 10.431-8.113 8.492 10.919 28.689-30.284 9.594 9.088-39.269 41.451z" fill="#fff"/></g><defs><clipPath id="clip0"><path fill="#fff" d="M0 0h832v690.689H0z"/></clipPath></defs></svg>